<?xml version="1.0" encoding="utf-8"?>
<!-- Generator: Adobe Illustrator 24.0.2, SVG Export Plug-In . SVG Version: 6.00 Build 0)  -->
<svg version="1.1" id="Layer_1" xmlns="http://www.w3.org/2000/svg" xmlns:xlink="http://www.w3.org/1999/xlink" x="0px" y="0px"
	 viewBox="0 0 2000 2000" style="enable-background:new 0 0 2000 2000;" xml:space="preserve">
<style type="text/css">
	.st0{opacity:0.5;}
	.st1{opacity:0.65;}
	.st2{fill:#224098;}
	.st3{fill:none;stroke:#FFFFFF;stroke-width:10;stroke-miterlimit:10;}
	.st4{fill:#82C241;}
	.st5{fill:#FAAF3B;}
	.st6{fill:none;stroke:#EF5A28;stroke-width:30;stroke-linecap:round;stroke-miterlimit:10;}
	.st7{fill:none;stroke:#EF5A28;stroke-width:40;stroke-linecap:round;stroke-miterlimit:10;}
	.st8{fill:#FFFFFF;}
	.st9{clip-path:url(#SVGID_9_);}
	.st10{fill:#3D506E;stroke:#000000;stroke-width:5;stroke-miterlimit:10;}
	.st11{fill:#6B614B;stroke:#000000;stroke-width:5;stroke-miterlimit:10;}
	.st12{fill:#FFFFFF;stroke:#000000;stroke-width:5;stroke-miterlimit:10;}
	.st13{clip-path:url(#SVGID_10_);}
	.st14{clip-path:url(#SVGID_11_);}
	.st15{clip-path:url(#SVGID_12_);}
	.st16{clip-path:url(#SVGID_13_);}
	.st17{clip-path:url(#SVGID_14_);}
	.st18{clip-path:url(#SVGID_15_);}
	.st19{clip-path:url(#SVGID_16_);}
	.st20{fill:#3D506E;}
</style>
<g class="st0">
	<g class="st1">
		<path class="st2" d="M1006.73,1207.8c-2.8-18.99-19.93-33.87-38.75-37.7c-18.81-3.83-38.58,1.9-55,11.84
			c-10.91,6.6-21.27,15.98-23.9,28.46c-2.63,12.47,6.06,27.61,18.81,27.54c-15.22,9.2-9.25,32.33-1.45,48.31
			c6.32,12.94,12.94,26.28,23.95,35.56c11.01,9.28,27.7,13.45,40,5.94c-20.54,2.18-36.28,19.4-46.39,37.41
			c-10.11,18.01-16.87,38.14-30.1,54c-16.27,19.51-40.4,30.36-63.66,40.58c-6.12,2.69-12.57,5.43-19.22,4.84
			c-9.7-0.87-17.25-8.47-23.89-15.6c-11.68-12.56-23.62-25.52-29.86-41.49c-6.18-15.83-6.33-33.56-12.91-49.22
			c-6.58-15.67-24.02-29.45-39.7-22.91c-16.03,6.68-18.09,29.81-9.96,45.16c8.13,15.35,22.83,25.97,33.94,39.32
			c15.27,18.35,23.44,41.44,35.46,62.06s30.39,40.2,54.12,42.78c18.77,2.05,36.8-6.91,53.57-15.61
			c31.09-16.14,62.18-32.27,93.27-48.41c9.83,15.37,19.86,31.26,23.09,49.21s-1.98,38.7-17.27,48.65
			c-10.06,6.55-22.68,7.5-34.68,7.68c-33.79,0.49-69.55-3.22-99.59,12.27c-28.51,14.7-46.59,44.75-54.33,75.88
			c-7.74,31.12-6.52,63.69-5.24,95.73c-12.43-4.85-24.85-9.7-37.28-14.56c-3.1,12.41,5.53,24.42,13.64,34.32
			c11.54,14.09,23.63,28.61,40.07,36.44c16.44,7.83,38.57,6.89,50.22-7.1c14.23-17.08,6.66-42.48,7.93-64.67
			c1.67-29.25,20.29-55.45,43.69-73.08c23.4-17.63,51.34-28,78.93-37.87c10.02-3.59,21.85-6.96,30.71-1.05
			c7.94,5.29,10.04,15.79,12.04,25.11c10.5,48.86,43.18,98.57,92.58,106.21c42.7,6.6,82.87-19.55,118.17-44.47
			c10.64,14.78,21.29,29.56,31.93,44.34c0.72-25.21-2.5-50.52-9.52-74.74c-4.79-16.53-11.72-33.11-24.38-44.77
			c-12.66-11.66-32.2-17.19-47.59-9.48c-9.83,4.93-16.61,14.31-25.53,20.76c-18,13.04-44.91,11.93-61.79-2.53
			c-16.88-14.47-22.08-40.89-11.94-60.68c4.27-8.34,10.79-15.3,15.82-23.22c28.51-44.9,2.68-103.27-23.18-149.74
			c1.61-26.98,29.31-47.44,56.34-47.18c27.03,0.26,51.71,17.09,68.26,38.47s26.33,47.07,36.21,72.23
			c7.09,18.06,14.95,36.88,30.11,48.98c15.16,12.1,39.97,14.41,52.62-0.29c15.59-18.12,3.57-45.79-8.83-66.22
			c-19.6-32.29-39.19-64.57-58.79-96.86c-21.76-35.85-52.39-76.49-94.16-72.78c-40.43,3.6-74.19,49.42-112.86,37.07
			c-19.03-6.08-31.3-25.5-34.72-45.18s0.38-39.81,4.17-59.42"/>
	</g>
	<g class="st1">
		<path class="st2" d="M1494.25,1369.8c-2.8-18.99-19.93-33.87-38.75-37.7c-18.81-3.83-38.58,1.9-55,11.84
			c-10.91,6.6-21.27,15.98-23.9,28.46c-2.63,12.47,6.06,27.61,18.81,27.54c-15.22,9.2-9.25,32.33-1.45,48.31
			c6.32,12.94,12.94,26.28,23.95,35.56c11.01,9.28,27.7,13.45,40,5.94c-20.54,2.18-36.28,19.4-46.39,37.41
			c-10.11,18.01-16.87,38.14-30.1,54c-16.27,19.51-40.4,30.36-63.66,40.58c-6.12,2.69-12.57,5.43-19.22,4.84
			c-9.7-0.87-17.25-8.47-23.89-15.6c-11.68-12.56-23.62-25.52-29.86-41.49c-6.18-15.83-6.33-33.56-12.91-49.22
			s-24.02-29.45-39.7-22.91c-16.03,6.68-18.09,29.81-9.96,45.16c8.13,15.35,22.83,25.97,33.94,39.32
			c15.27,18.35,23.44,41.44,35.46,62.06s30.39,40.2,54.12,42.78c18.77,2.05,36.8-6.91,53.57-15.61
			c31.09-16.14,62.18-32.27,93.27-48.41c9.83,15.37,19.86,31.26,23.09,49.21c3.23,17.95-1.98,38.7-17.27,48.65
			c-10.06,6.55-22.68,7.5-34.68,7.68c-33.79,0.49-69.55-3.22-99.59,12.27c-28.51,14.7-46.59,44.75-54.33,75.88
			c-7.74,31.12-6.52,63.69-5.24,95.73c-12.43-4.85-24.85-9.7-37.28-14.56c-3.1,12.41,5.53,24.42,13.64,34.32
			c11.54,14.09,23.63,28.61,40.07,36.44s38.57,6.89,50.22-7.1c14.23-17.08,6.66-42.48,7.93-64.67
			c1.67-29.25,20.29-55.45,43.69-73.08c23.4-17.63,51.34-28,78.93-37.87c10.02-3.59,21.85-6.96,30.71-1.05
			c7.94,5.29,10.04,15.79,12.04,25.11c10.5,48.86,43.18,98.58,92.58,106.21c42.7,6.6,82.87-19.55,118.17-44.47
			c10.64,14.78,21.29,29.56,31.93,44.34c0.72-25.21-2.5-50.52-9.52-74.74c-4.79-16.53-11.72-33.11-24.38-44.77
			s-32.2-17.19-47.59-9.48c-9.83,4.93-16.61,14.31-25.53,20.76c-18,13.04-44.91,11.93-61.79-2.53
			c-16.88-14.47-22.08-40.89-11.94-60.68c4.27-8.34,10.79-15.3,15.82-23.22c28.51-44.9,2.68-103.27-23.18-149.74
			c1.61-26.98,29.31-47.44,56.34-47.18c27.03,0.26,51.71,17.09,68.25,38.47c16.54,21.38,26.33,47.07,36.21,72.23
			c7.09,18.06,14.95,36.88,30.11,48.98c15.16,12.1,39.97,14.41,52.62-0.29c15.59-18.12,3.57-45.79-8.83-66.22
			c-19.6-32.29-39.19-64.57-58.79-96.86c-21.76-35.85-52.39-76.49-94.16-72.78c-40.43,3.6-74.19,49.42-112.86,37.07
			c-19.03-6.08-31.3-25.5-34.72-45.18s0.38-39.81,4.17-59.42"/>
	</g>
	<g class="st1">
		<path class="st2" d="M521.04,1081.57c-2.92-19.81-20.79-35.33-40.42-39.32c-19.62-3.99-40.24,1.98-57.38,12.35
			c-11.38,6.89-22.19,16.67-24.93,29.69c-2.74,13.01,6.32,28.8,19.62,28.73c-15.88,9.6-9.65,33.72-1.51,50.39
			c6.59,13.5,13.5,27.41,24.98,37.1c11.49,9.68,28.9,14.03,41.72,6.2c-21.43,2.27-37.84,20.24-48.39,39.02
			c-10.55,18.79-17.6,39.78-31.4,56.33c-16.97,20.36-42.15,31.68-66.41,42.33c-6.38,2.8-13.11,5.66-20.05,5.04
			c-10.12-0.9-18-8.83-24.92-16.27c-12.18-13.1-24.64-26.62-31.15-43.28c-6.45-16.51-6.6-35.01-13.47-51.35
			c-6.86-16.34-25.06-30.72-41.42-23.9c-16.73,6.97-18.87,31.1-10.39,47.11c8.48,16.01,23.82,27.09,35.41,41.02
			c15.93,19.14,24.45,43.23,36.99,64.74s31.7,41.93,56.46,44.63c19.59,2.14,38.39-7.21,55.88-16.28
			c32.43-16.83,64.87-33.66,97.3-50.5c10.25,16.03,20.72,32.61,24.09,51.34c3.37,18.73-2.07,40.37-18.02,50.76
			c-10.5,6.83-23.66,7.82-36.18,8.01c-35.25,0.51-72.55-3.36-103.89,12.8c-29.74,15.33-48.6,46.68-56.68,79.15
			c-8.08,32.47-6.8,66.44-5.47,99.87c-12.96-5.06-25.93-10.12-38.89-15.18c-3.23,12.95,5.77,25.47,14.23,35.8
			c12.04,14.69,24.65,29.85,41.8,38.01c17.15,8.16,40.23,7.19,52.39-7.4c14.84-17.82,6.95-44.31,8.27-67.46
			c1.74-30.51,21.17-57.84,45.58-76.23c24.41-18.39,53.56-29.21,82.34-39.51c10.46-3.74,22.79-7.26,32.03-1.1
			c8.28,5.52,10.47,16.47,12.56,26.2c10.96,50.97,45.05,102.83,96.57,110.8c44.54,6.89,86.45-20.4,123.27-46.39
			c11.1,15.42,22.21,30.84,33.31,46.25c0.75-26.3-2.61-52.7-9.93-77.97c-5-17.24-12.22-34.54-25.43-46.7
			c-13.2-12.16-33.59-17.93-49.64-9.89c-10.26,5.14-17.33,14.93-26.63,21.66c-18.78,13.6-46.85,12.45-64.46-2.64
			c-17.6-15.09-23.03-42.66-12.46-63.3c4.46-8.7,11.26-15.97,16.5-24.22c29.74-46.84,2.8-107.73-24.18-156.21
			c1.68-28.15,30.57-49.49,58.77-49.22c28.2,0.27,53.95,17.83,71.2,40.13c17.26,22.3,27.47,49.1,37.78,75.35
			c7.4,18.84,15.59,38.47,31.41,51.1c15.82,12.62,41.69,15.03,54.9-0.31c16.27-18.9,3.73-47.77-9.21-69.08
			c-20.44-33.68-40.88-67.36-61.32-101.04c-22.7-37.4-54.65-79.8-98.23-75.92c-42.17,3.75-77.4,51.55-117.73,38.67
			c-19.85-6.34-32.65-26.6-36.22-47.13c-3.57-20.53,0.39-41.53,4.35-61.99"/>
	</g>
	<path class="st3" d="M898.86,1434.66"/>
	<g>
		<g>
			<path class="st4" d="M1421.26,932.2c-0.27-4.31-0.66-8.62-1.17-12.91c-1.14-9.57-2.35-19.16-4-28.66
				c-1.44-8.29-3.33-16.51-5.66-24.6c-2.31-8.03-5.05-15.94-8.22-23.67c-5.06-12.37-10.15-24.76-16.5-36.54
				c-3.76-6.98-7.9-13.76-12.41-20.28c-7.33-10.59-15.23-20.88-23.73-30.57c-4.98-5.68-10.3-11.06-15.95-16.06
				c-4.66-4.12-9.6-7.87-14.53-11.68c-4.93-3.81-9.81-7.66-14.99-11.12c-5.85-3.9-11.97-7.38-18.35-10.34
				c-6.34-2.94-12.84-5.54-19.28-8.22c-1.63-0.68-3.27-1.33-4.93-1.94c-3.17-1.17-6.4-2.21-9.66-3.11
				c-3.32-0.91-6.69-1.67-10.08-2.28c-7.05-1.25-14.19-2.03-21.28-2.96c-1.74-0.23-3.49-0.43-5.24-0.58
				c-6.79-0.59-13.63-0.56-20.42,0.06c-1.68,0.15-3.36,0.35-5.04,0.57c-7.09,0.93-14.22,1.72-21.27,2.95
				c-3.42,0.59-6.81,1.33-10.17,2.21c-11.88,3.1-23.07,8.14-34.32,13c-6.56,2.83-12.9,6.16-18.97,9.91
				c-3.13,1.93-6.19,3.97-9.18,6.12c-7.25,5.2-14.31,10.68-21.2,16.34c-15.95,13.11-28.77,29.16-40.89,45.79
				c-4.72,6.47-9.02,13.23-12.91,20.23c-6.58,11.87-11.76,24.47-16.85,37.03c-1.54,3.8-2.96,7.64-4.27,11.53
				c-2.6,8.31-2.98,16.61-1.12,24.92c0.38,8.32,2.85,16.06,7.42,23.24c3.93,7.28,9.29,13.13,16.1,17.54
				c6.04,5.52,13.12,9.25,21.25,11.19c5.54,0.74,11.08,1.49,16.61,2.23c11.28-0.04,21.8-2.88,31.54-8.53
				c4.22-3.26,8.43-6.52,12.65-9.77c7.75-7.8,13.1-16.99,16.07-27.58c1.63-4.83,3.44-9.59,5.41-14.29c-2.1,4.98-4.2,9.95-6.3,14.93
				c6.6-15.58,15.1-30.32,25.43-43.72c-3.26,4.22-6.52,8.43-9.77,12.65c9.24-11.95,19.89-22.78,31.83-32.04
				c-4.22,3.26-8.43,6.52-12.65,9.77c10.48-8.09,21.92-14.93,34.12-20.08c-4.98,2.1-9.95,4.2-14.93,6.3
				c10.55-4.42,21.62-7.55,32.96-9.09c-5.54,0.74-11.08,1.49-16.61,2.23c10.19-1.35,20.51-1.4,30.7-0.05
				c-5.54-0.74-11.08-1.49-16.61-2.23c10.22,1.39,20.18,4.2,29.68,8.21c-4.98-2.1-9.95-4.2-14.93-6.3
				c11.1,4.72,21.47,10.98,31.02,18.34c-4.22-3.26-8.43-6.52-12.65-9.77c11.95,9.27,22.54,20.18,31.8,32.13
				c-3.26-4.22-6.52-8.43-9.77-12.65c11.34,14.71,20.63,30.94,27.88,48.04c-2.1-4.98-4.2-9.95-6.3-14.93
				c6.21,14.72,10.91,30.05,13.98,45.73c0.89,4.51,1.63,9.04,2.25,13.6c-0.74-5.54-1.49-11.08-2.23-16.61
				c0.73,5.45,1.27,10.92,1.62,16.41c-0.32,8.6,1.47,16.63,5.38,24.08c2.52,7.75,6.83,14.45,12.92,20.11
				c5.66,6.09,12.37,10.4,20.11,12.92c7.45,3.91,15.47,5.71,24.08,5.38c5.54-0.74,11.08-1.49,16.61-2.23
				c10.59-2.97,19.78-8.33,27.58-16.07c3.26-4.22,6.52-8.43,9.77-12.65C1418.38,953.99,1421.22,943.48,1421.26,932.2L1421.26,932.2z
				"/>
		</g>
	</g>
	<g>
		<g>
			<path class="st4" d="M1751.21,1035.1c-6.39,4.08-12.4,9.14-18.26,13.75c-1.9,1.5-3.73,3.09-5.47,4.77
				c-1.77,1.7-3.45,3.49-5.05,5.36c-5.02,5.85-9.69,12.02-14.19,18.27c-3.01,4.18-5.65,8.63-7.95,13.25
				c-3.5,7.03-6.41,14.54-9.39,21.71c-1.02,2.46-1.96,4.96-2.81,7.49c-1.81,5.35-3.25,10.82-4.35,16.36
				c-2.22,11.11-3.69,22.43-4.62,33.72c-1.01,12.27-0.57,24.61,1.05,36.8c1.58,11.87,2.94,23.69,5.78,35.33
				c1.57,6.43,3.49,12.77,5.74,19c3.93,10.86,8.46,21.54,13.42,31.96c2.67,5.62,5.6,11.11,8.78,16.46
				c3.16,5.31,6.55,10.48,10.17,15.49c6.64,9.2,13.57,18.25,21,26.84c7.78,8.98,16.34,17.3,25.66,24.68
				c12.83,10.16,25.64,20.25,40.42,27.43c7.12,3.46,14.57,6.41,21.86,9.41c2.4,0.99,4.83,1.9,7.28,2.72
				c4.7,1.57,9.51,2.83,14.39,3.68c7.73,1.35,15.53,2.39,23.35,3.14c8.6,0.32,16.63-1.47,24.08-5.38
				c7.75-2.52,14.45-6.83,20.11-12.92c6.09-5.66,10.4-12.37,12.92-20.11c3.91-7.45,5.71-15.47,5.38-24.08
				c-0.74-5.54-1.49-11.08-2.23-16.61c-2.97-10.59-8.33-19.78-16.07-27.58c-4.22-3.26-8.43-6.52-12.65-9.77
				c-9.75-5.65-20.26-8.5-31.54-8.53c-1.09-0.1-2.19-0.23-3.28-0.37c5.54,0.74,11.08,1.49,16.61,2.23
				c-9.01-1.22-17.76-3.82-26.12-7.35c4.98,2.1,9.95,4.2,14.93,6.3c-11.46-4.87-22.13-11.43-31.99-19.02
				c4.22,3.26,8.43,6.52,12.65,9.77c-12.97-10.03-24.51-21.83-34.55-34.78c3.26,4.22,6.52,8.43,9.77,12.65
				c-10.71-13.87-19.68-29.07-26.52-45.21c2.1,4.98,4.2,9.95,6.3,14.93c-6.31-15-10.68-30.77-12.88-46.9
				c0.74,5.54,1.49,11.08,2.23,16.61c-2-14.88-2.17-29.99-0.18-44.88c-0.74,5.54-1.49,11.08-2.23,16.61
				c1.57-11.44,4.42-22.72,8.89-33.38c-2.1,4.98-4.2,9.95-6.3,14.93c3.26-7.71,7.37-15.06,12.47-21.72
				c-3.26,4.22-6.52,8.43-9.77,12.65c4.02-5.2,8.62-9.92,13.82-13.95c-4.22,3.26-8.43,6.52-12.65,9.77
				c1.65-1.26,3.34-2.46,5.09-3.57c7.28-3.93,13.13-9.29,17.54-16.1c5.52-6.04,9.25-13.12,11.19-21.25
				c2.6-8.31,2.98-16.61,1.12-24.92c-0.38-8.32-2.85-16.06-7.42-23.24c-3.26-4.22-6.52-8.43-9.77-12.65
				c-7.8-7.75-16.99-13.1-27.58-16.07c-5.54-0.74-11.08-1.49-16.61-2.23C1771.47,1026.6,1760.96,1029.45,1751.21,1035.1
				L1751.21,1035.1z"/>
		</g>
	</g>
	<g>
		<g>
			<path class="st4" d="M1873.41,750.19c-0.11-1.13-0.24-2.26-0.38-3.38c-0.84-6.6-1.64-13.22-2.69-19.79
				c-0.36-2.23-0.78-4.44-1.27-6.64c-0.99-4.43-2.25-8.8-3.77-13.07c-3.24-9.14-7.05-18.13-11.31-26.84
				c-1.95-3.99-4.13-7.87-6.54-11.61c-5.18-8.06-11.25-15.61-17.29-23c-2.7-3.3-5.58-6.44-8.65-9.39
				c-6.75-6.49-14.51-12.11-21.93-17.68c-3.33-2.5-6.83-4.78-10.47-6.81c-1.82-1.01-3.68-1.96-5.57-2.84
				c-6.62-3.08-13.36-5.91-20.18-8.52c-3.73-1.43-7.57-2.57-11.47-3.4c-7.3-1.55-14.82-2.25-22.2-3.19
				c-2.05-0.26-4.1-0.45-6.16-0.55c-4.05-0.19-8.11-0.04-12.14,0.42c-6.37,0.73-12.75,1.62-19.09,2.56
				c-1.05,0.15-2.09,0.33-3.13,0.52c-1.97,0.37-3.93,0.82-5.87,1.33c-9.02,2.4-17.55,6.49-26.09,10.12
				c-3.83,1.63-7.55,3.49-11.13,5.61c-8.1,4.8-15.44,10.96-22.8,16.72c-3.33,2.6-6.49,5.42-9.46,8.42
				c-6.71,6.79-12.34,14.66-18.1,22.21c-2.68,3.51-5.15,7.18-7.36,11.01c-4.86,8.4-8.34,17.58-12.05,26.5
				c-0.86,2.08-1.67,4.18-2.4,6.3c-2.6,8.31-2.98,16.61-1.12,24.92c0.38,8.32,2.85,16.06,7.42,23.24
				c3.93,7.28,9.29,13.13,16.1,17.54c6.04,5.52,13.12,9.25,21.25,11.19c5.54,0.74,11.08,1.49,16.61,2.23
				c11.28-0.04,21.8-2.88,31.54-8.53c4.22-3.26,8.43-6.52,12.65-9.77c7.75-7.8,13.1-16.99,16.07-27.58c0.74-2.13,1.54-4.23,2.4-6.3
				c-2.1,4.98-4.2,9.95-6.3,14.93c3.42-8.11,7.86-15.74,13.22-22.72c-3.26,4.22-6.52,8.43-9.77,12.65
				c5.28-6.83,11.4-12.99,18.23-18.27c-4.22,3.26-8.43,6.52-12.65,9.77c6.38-4.89,13.32-9,20.73-12.13c-4.98,2.1-9.95,4.2-14.93,6.3
				c6.72-2.81,13.76-4.79,20.98-5.79c-5.54,0.74-11.08,1.49-16.61,2.23c6.62-0.89,13.32-0.94,19.95-0.08
				c-5.54-0.74-11.08-1.49-16.61-2.23c6.73,0.9,13.28,2.74,19.54,5.36c-4.98-2.1-9.95-4.2-14.93-6.3c7.12,3.01,13.77,7,19.89,11.71
				c-4.22-3.26-8.43-6.52-12.65-9.77c7.07,5.49,13.37,11.91,18.85,18.99c-3.26-4.22-6.52-8.43-9.77-12.65
				c5.93,7.72,10.84,16.18,14.64,25.14c-2.1-4.98-4.2-9.95-6.3-14.93c3.86,9.19,6.53,18.84,7.86,28.72
				c-0.74-5.54-1.49-11.08-2.23-16.61c0.16,1.25,0.31,2.5,0.43,3.76c-0.32,8.6,1.47,16.63,5.38,24.08
				c2.52,7.75,6.83,14.45,12.92,20.11c5.66,6.09,12.37,10.4,20.11,12.92c7.45,3.91,15.47,5.71,24.08,5.38
				c5.54-0.74,11.08-1.49,16.61-2.23c10.59-2.97,19.78-8.33,27.58-16.07c3.26-4.22,6.52-8.43,9.77-12.65
				C1870.53,771.98,1873.37,761.47,1873.41,750.19L1873.41,750.19z"/>
		</g>
	</g>
	<g>
		<g>
			<path class="st4" d="M153.83,1664.41c2.13-7.33,3.8-14.79,5.01-22.32c2.03-12.73,3.9-25.67,4.43-38.59
				c0.3-7.41,0.17-14.85-0.38-22.25c-0.28-3.7-0.67-7.39-1.16-11.07c-1.2-9.05-2.23-18.19-3.95-27.17
				c-1.36-7.11-3.13-14.15-5.31-21.06c-1.09-3.44-2.27-6.85-3.56-10.23c-3.16-8.27-6.64-16.44-10.29-24.51
				c-2.88-6.38-6.15-12.6-9.8-18.57c-6.33-10.34-13.95-19.97-21.56-29.35c-4.26-5.25-8.89-10.2-13.86-14.78
				c-2.48-2.29-5.06-4.48-7.71-6.57c-6.66-5.24-13.33-10.67-20.39-15.41c-5.61-3.76-11.53-7.05-17.69-9.84
				c-6.33-2.86-12.75-5.51-19.18-8.13c-1.53-0.63-3.08-1.22-4.63-1.78c-3.16-1.15-6.38-2.17-9.62-3.06
				c-11.79-3.25-24.04-4.6-36.14-6.07c-6.71-0.81-13.49-1.14-20.25-0.99c-3.44,0.07-6.88,0.26-10.31,0.57
				c-1.69,0.15-3.39,0.33-5.08,0.54c-7.18,0.88-14.36,1.8-21.51,2.92c-6.87,1.07-13.67,2.6-20.35,4.55
				c-11.86,3.47-23.18,8.47-34.49,13.38c-6.63,2.88-13.08,6.18-19.29,9.88c-10.76,6.41-20.49,14.18-30.36,21.89
				c-5.89,4.6-11.48,9.58-16.71,14.91c-2.57,2.61-5.05,5.31-7.44,8.08c-6.09,5.66-10.4,12.37-12.92,20.11
				c-3.91,7.45-5.71,15.48-5.38,24.08c-0.32,8.6,1.47,16.63,5.38,24.08c2.52,7.75,6.83,14.45,12.92,20.11
				c4.22,3.26,8.43,6.52,12.65,9.77c9.75,5.65,20.26,8.5,31.54,8.53c5.54-0.74,11.08-1.49,16.61-2.23
				c10.59-2.97,19.78-8.33,27.58-16.07c7.49-8.66,15.84-16.56,24.9-23.57c-4.22,3.26-8.43,6.52-12.65,9.77
				c11.64-8.96,24.39-16.42,37.93-22.14c-4.98,2.1-9.95,4.2-14.93,6.3c13.24-5.56,27.15-9.43,41.38-11.37
				c-5.54,0.74-11.08,1.49-16.61,2.23c13.02-1.74,26.24-1.85,39.27-0.1c-5.54-0.74-11.08-1.49-16.61-2.23
				c11.45,1.56,22.67,4.55,33.33,9.03c-4.98-2.1-9.95-4.2-14.93-6.3c9.81,4.16,19.02,9.57,27.45,16.08
				c-4.22-3.26-8.43-6.52-12.65-9.77c9.21,7.15,17.41,15.52,24.56,24.73c-3.26-4.22-6.52-8.43-9.77-12.65
				c8.59,11.13,15.6,23.41,21.09,36.35c-2.1-4.98-4.2-9.95-6.3-14.93c4.95,11.74,8.65,23.99,11.08,36.49
				c0.71,3.62,1.3,7.26,1.8,10.92c-0.74-5.54-1.49-11.08-2.23-16.61c1.76,13.12,2.19,26.42,1.22,39.62
				c-0.28,3.77-0.67,7.53-1.17,11.28c0.74-5.54,1.49-11.08,2.23-16.61c-1.23,9.09-3.12,18.09-5.68,26.9
				c-2.6,8.31-2.98,16.61-1.12,24.92c0.38,8.32,2.85,16.06,7.42,23.24c3.93,7.28,9.29,13.13,16.1,17.54
				c6.04,5.52,13.12,9.25,21.25,11.19c5.54,0.74,11.08,1.49,16.61,2.23c11.28-0.04,21.8-2.88,31.54-8.53
				c4.22-3.26,8.43-6.52,12.65-9.77C145.51,1684.19,150.87,1675,153.83,1664.41L153.83,1664.41z"/>
		</g>
	</g>
	<g>
		<g>
			<path class="st4" d="M-44.9,597.31c11.81,5.09,23.55,10.24,35.89,13.88c7.12,2.09,14.37,3.76,21.69,5
				c9.05,1.53,18.17,2.71,27.29,3.73c3.61,0.4,7.24,0.7,10.87,0.9c7.32,0.4,14.67,0.38,21.99-0.07c3.57-0.22,7.13-0.53,10.67-0.95
				c9-1.06,18.03-2.18,26.97-3.75c6.96-1.22,13.86-2.84,20.63-4.88c11.77-3.53,23.1-8.49,34.32-13.43
				c6.24-2.75,12.32-5.89,18.15-9.43c2.9-1.76,5.74-3.63,8.51-5.59c1.38-0.98,2.74-1.98,4.08-3c5.43-4.15,10.92-8.26,16.21-12.59
				c5.17-4.23,10.03-8.85,14.48-13.84c5.7-6.37,10.81-13.38,15.95-20.13c2.04-2.68,3.97-5.45,5.78-8.29
				c3.66-5.75,6.85-11.8,9.54-18.06c4.77-11.13,9.7-22.09,12.76-33.82c3.12-11.94,4.56-24.39,5.94-36.6
				c0.78-6.89,1.08-13.82,0.92-20.75c-0.08-3.47-0.28-6.94-0.59-10.4c-0.8-8.99-2.11-17.95-3.48-26.86
				c-1.1-7.12-2.66-14.16-4.68-21.07c-3.5-12.05-8.57-23.54-13.55-35.04c-2.93-6.76-6.3-13.33-10.07-19.65
				c-6.55-10.97-14.51-20.98-22.42-30.99c-2.3-2.91-4.7-5.74-7.18-8.49c-5.66-6.09-12.37-10.4-20.11-12.92
				c-7.45-3.91-15.47-5.71-24.08-5.38c-8.6-0.32-16.63,1.47-24.08,5.38c-7.75,2.52-14.45,6.83-20.11,12.92
				c-3.26,4.22-6.52,8.43-9.77,12.65c-5.65,9.75-8.5,20.26-8.53,31.54c0.74,5.54,1.49,11.08,2.23,16.61
				c2.97,10.59,8.33,19.78,16.07,27.58c2.91,3.23,5.69,6.56,8.35,10c-3.26-4.22-6.52-8.43-9.77-12.65
				c8.99,11.66,16.46,24.45,22.2,38.02c-2.1-4.98-4.2-9.95-6.3-14.93c5.76,13.7,9.74,28.11,11.73,42.84
				c-0.74-5.54-1.49-11.08-2.23-16.61c1.82,13.7,1.91,27.61,0.08,41.32c0.74-5.54,1.49-11.08,2.23-16.61
				c-1.64,12.02-4.76,23.81-9.46,34.99c2.1-4.98,4.2-9.95,6.3-14.93c-4.21,9.97-9.66,19.38-16.28,27.95
				c3.26-4.22,6.52-8.43,9.77-12.65c-6.64,8.55-14.39,16.17-22.93,22.81c4.22-3.26,8.43-6.52,12.65-9.77
				c-10.3,7.95-21.66,14.43-33.64,19.5c4.98-2.1,9.95-4.2,14.93-6.3c-11.13,4.69-22.76,8.16-34.61,10.46
				c-3.48,0.67-6.97,1.24-10.48,1.72c5.54-0.74,11.08-1.49,16.61-2.23c-13.05,1.74-26.27,2.14-39.4,1.17
				c-3.82-0.28-7.63-0.68-11.42-1.19c5.54,0.74,11.08,1.49,16.61,2.23c-12.68-1.72-25.19-4.68-37.27-8.93
				c-3.51-1.24-6.99-2.58-10.42-4.03c4.98,2.1,9.95,4.2,14.93,6.3c-0.47-0.2-0.93-0.4-1.4-0.6c-7.17-4.57-14.92-7.04-23.24-7.42
				c-8.31-1.86-16.61-1.49-24.92,1.12c-8.13,1.93-15.22,5.66-21.25,11.19c-6.8,4.41-12.17,10.25-16.1,17.54
				c-2.1,4.98-4.2,9.95-6.3,14.93c-2.98,11.08-2.98,22.15,0,33.23c2.1,4.98,4.2,9.95,6.3,14.93
				C-61.76,584.28-54.29,591.76-44.9,597.31L-44.9,597.31z"/>
		</g>
	</g>
	<g>
		<g>
			<path class="st5" d="M1571.63,1124.43c-2.47-2.63-5.11-5.1-7.9-7.39c-4.56-3.74-9.24-7.36-14.01-10.83
				c-1.47-1.07-2.97-2.09-4.51-3.07c-2.95-1.87-6.01-3.57-9.17-5.08c-5.41-2.59-11.01-4.81-16.55-7.08
				c-1.6-0.66-3.22-1.27-4.86-1.83c-3.31-1.14-6.68-2.08-10.11-2.82c-1.67-0.36-3.35-0.67-5.03-0.93
				c-5.97-0.92-11.97-1.79-17.99-2.38c-11.18-1.09-22.2,0.57-33.26,2.33c-3.29,0.52-6.55,1.27-9.73,2.26
				c-1.55,0.48-3.09,1.02-4.61,1.61c-5.47,2.14-10.95,4.37-16.26,6.92c-2.96,1.42-5.81,3.08-8.51,4.95
				c-4.81,3.33-9.4,7.01-13.93,10.67c-1.28,1.03-2.52,2.12-3.71,3.24c-2.44,2.3-4.7,4.78-6.78,7.41
				c-4.56,5.78-9.46,11.64-13.25,18.04c-1.74,2.93-3.27,5.98-4.61,9.11c-2.99,6.99-6.27,14-8.35,21.35
				c-0.95,3.35-1.68,6.75-2.19,10.19c-1.13,7.65-2.45,15.47-2.64,23.25c-0.08,3.55,0.06,7.1,0.45,10.63
				c0.67,6.13,1.44,12.27,2.5,18.34c0.3,1.75,0.67,3.48,1.09,5.2c0.42,1.74,0.91,3.46,1.45,5.16c1.55,6.51,4.53,12.17,8.95,17
				c3.53,5.44,8.2,9.74,14.03,12.88c5.74,3.65,11.94,5.63,18.59,5.93c6.65,1.49,13.29,1.19,19.94-0.89
				c3.98-1.68,7.96-3.36,11.94-5.04c7.51-4.45,13.49-10.42,17.94-17.94c1.68-3.98,3.36-7.96,5.04-11.94
				c2.38-8.86,2.38-17.72,0-26.58c-1.36-4.33-2.36-8.75-2.98-13.25c0.6,4.43,1.19,8.86,1.79,13.29c-0.96-7.14-0.96-14.37-0.03-21.52
				c-0.6,4.43-1.19,8.86-1.79,13.29c0.96-7.11,2.83-14.06,5.6-20.67c-1.68,3.98-3.36,7.96-5.04,11.94
				c2.52-5.94,5.75-11.54,9.69-16.65c-2.61,3.37-5.21,6.75-7.82,10.12c3.49-4.49,7.49-8.54,11.98-12.04
				c-3.37,2.61-6.75,5.21-10.12,7.82c4.31-3.32,9.01-6.07,14.01-8.2c-3.98,1.68-7.96,3.36-11.94,5.04
				c5.63-2.36,11.54-3.92,17.58-4.75c-4.43,0.6-8.86,1.19-13.29,1.79c7.11-0.95,14.31-0.88,21.42,0.07
				c-4.43-0.6-8.86-1.19-13.29-1.79c7.64,1.05,15.11,3.11,22.23,6.08c-3.98-1.68-7.96-3.36-11.94-5.04
				c7.01,2.96,13.62,6.8,19.65,11.44c-3.37-2.61-6.75-5.21-10.12-7.82c3.48,2.7,6.74,5.66,9.76,8.87
				c4.53,4.88,9.89,8.32,16.09,10.34c5.96,3.13,12.38,4.57,19.26,4.31c6.88,0.26,13.31-1.18,19.26-4.31
				c6.2-2.02,11.56-5.46,16.09-10.34c2.61-3.37,5.21-6.75,7.82-10.12c4.52-7.8,6.8-16.21,6.83-25.24c-0.6-4.43-1.19-8.86-1.79-13.29
				C1582.12,1138.02,1577.83,1130.67,1571.63,1124.43L1571.63,1124.43z"/>
		</g>
	</g>
	<g>
		<g>
			<path class="st5" d="M571.41,27.59c-1.8,5.75-3.26,11.61-4.34,17.54c-1.85,10.12-3.26,20.41-3.91,30.68
				c-1.02,16.12,0.91,32.18,3.58,48.08c0.96,5.69,2.24,11.33,3.85,16.87c2.77,9.53,6.73,18.54,10.61,27.66
				c2.19,5.14,4.66,10.15,7.46,14.98c4.86,8.37,10.84,15.84,16.77,23.48c9.2,11.86,20.65,21.21,32.88,29.87
				c4.37,3.09,8.99,5.82,13.81,8.15c6.19,3,12.58,5.61,18.99,8.12c2.49,0.97,5.01,1.85,7.57,2.62c5.13,1.56,10.38,2.71,15.68,3.48
				c9.67,1.4,19.34,2.9,29.13,2.94c5.49,0.02,10.96-0.35,16.4-1.06c9.88-1.29,19.68-2.41,29.31-4.98c5.46-1.45,10.82-3.26,16.05-5.4
				c9.19-3.76,18.43-7.49,27.1-12.38c5.07-2.86,9.96-6.05,14.63-9.54c8.04-6.02,16.13-12.1,23.35-19.11c2.16-2.1,4.24-4.26,6.26-6.5
				c4.88-4.53,8.32-9.89,10.34-16.09c3.13-5.96,4.57-12.38,4.31-19.26c0.26-6.88-1.18-13.31-4.31-19.26
				c-2.02-6.2-5.46-11.56-10.34-16.09c-3.37-2.61-6.75-5.21-10.12-7.82c-7.8-4.52-16.21-6.8-25.24-6.83
				c-4.43,0.6-8.86,1.19-13.29,1.79c-8.47,2.38-15.82,6.66-22.06,12.86c-5.42,6-11.35,11.5-17.74,16.45
				c3.37-2.61,6.75-5.21,10.12-7.82c-9.27,7.15-19.43,13.1-30.22,17.67c3.98-1.68,7.96-3.36,11.94-5.04
				c-10.57,4.44-21.68,7.54-33.04,9.1c4.43-0.6,8.86-1.19,13.29-1.79c-10.48,1.41-21.1,1.49-31.58,0.09
				c4.43,0.6,8.86,1.19,13.29,1.79c-9.18-1.25-18.18-3.65-26.73-7.25c3.98,1.68,7.96,3.36,11.94,5.04
				c-7.7-3.27-14.94-7.5-21.58-12.59c3.37,2.61,6.75,5.21,10.12,7.82c-7.35-5.68-13.88-12.34-19.56-19.68
				c2.61,3.37,5.21,6.75,7.82,10.12c-6.68-8.69-12.13-18.26-16.41-28.34c1.68,3.98,3.36,7.96,5.04,11.94
				c-5.06-12.02-8.44-24.7-10.18-37.62c0.6,4.43,1.19,8.86,1.79,13.29c-1.76-13.31-1.78-26.81-0.02-40.12
				c-0.6,4.43-1.19,8.86-1.79,13.29c1.12-8.33,2.93-16.54,5.45-24.56c2.08-6.65,2.38-13.29,0.89-19.94
				c-0.3-6.65-2.28-12.85-5.93-18.59c-3.14-5.83-7.43-10.5-12.88-14.03c-4.83-4.42-10.5-7.4-17-8.95c-4.43-0.6-8.86-1.19-13.29-1.79
				c-9.03,0.03-17.44,2.3-25.24,6.83c-3.37,2.61-6.75,5.21-10.12,7.82C578.07,11.76,573.79,19.11,571.41,27.59L571.41,27.59z"/>
		</g>
	</g>
	<g>
		<g>
			<path class="st4" d="M149.41,1820.59c-1.8,5.75-3.26,11.61-4.34,17.54c-1.85,10.12-3.26,20.41-3.91,30.68
				c-1.02,16.12,0.91,32.18,3.58,48.08c0.96,5.69,2.24,11.33,3.85,16.87c2.77,9.53,6.73,18.54,10.61,27.66
				c2.19,5.14,4.66,10.15,7.46,14.98c4.86,8.37,10.84,15.84,16.77,23.48c9.2,11.86,20.65,21.21,32.88,29.87
				c4.37,3.09,8.99,5.82,13.81,8.15c6.19,3,12.58,5.61,18.99,8.12c2.49,0.97,5.01,1.85,7.57,2.62c5.13,1.56,10.38,2.71,15.68,3.48
				c9.67,1.4,19.34,2.9,29.13,2.94c5.49,0.02,10.96-0.35,16.4-1.06c9.88-1.29,19.68-2.41,29.31-4.98c5.46-1.45,10.82-3.26,16.05-5.4
				c9.19-3.76,18.43-7.49,27.1-12.38c5.07-2.86,9.96-6.05,14.63-9.54c8.04-6.02,16.13-12.1,23.35-19.11c2.16-2.1,4.24-4.26,6.26-6.5
				c4.88-4.53,8.32-9.89,10.34-16.09c3.13-5.96,4.57-12.38,4.31-19.26c0.26-6.88-1.18-13.31-4.31-19.26
				c-2.02-6.2-5.46-11.56-10.34-16.09c-3.37-2.61-6.75-5.21-10.12-7.82c-7.8-4.52-16.21-6.8-25.24-6.83
				c-4.43,0.6-8.86,1.19-13.29,1.79c-8.47,2.38-15.82,6.66-22.06,12.86c-5.42,6-11.35,11.5-17.74,16.45
				c3.37-2.61,6.75-5.21,10.12-7.82c-9.27,7.15-19.43,13.1-30.22,17.67c3.98-1.68,7.96-3.36,11.94-5.04
				c-10.57,4.44-21.68,7.54-33.04,9.1c4.43-0.6,8.86-1.19,13.29-1.79c-10.48,1.41-21.1,1.49-31.58,0.09
				c4.43,0.6,8.86,1.19,13.29,1.79c-9.18-1.25-18.18-3.65-26.73-7.24c3.98,1.68,7.96,3.36,11.94,5.04
				c-7.7-3.27-14.94-7.5-21.58-12.59c3.37,2.61,6.75,5.21,10.12,7.82c-7.35-5.68-13.88-12.34-19.56-19.68
				c2.61,3.37,5.21,6.75,7.82,10.12c-6.68-8.69-12.13-18.26-16.41-28.34c1.68,3.98,3.36,7.96,5.04,11.94
				c-5.06-12.02-8.44-24.7-10.18-37.62c0.6,4.43,1.19,8.86,1.79,13.29c-1.76-13.31-1.78-26.81-0.02-40.12
				c-0.6,4.43-1.19,8.86-1.79,13.29c1.12-8.33,2.93-16.54,5.45-24.56c2.08-6.65,2.38-13.29,0.89-19.94
				c-0.3-6.65-2.28-12.85-5.93-18.59c-3.14-5.83-7.43-10.5-12.88-14.03c-4.83-4.42-10.5-7.4-17-8.95c-4.43-0.6-8.86-1.19-13.29-1.79
				c-9.03,0.03-17.44,2.3-25.24,6.83c-3.37,2.61-6.75,5.21-10.12,7.82C156.07,1804.76,151.79,1812.11,149.41,1820.59L149.41,1820.59
				z"/>
		</g>
	</g>
	<g>
		<g>
			<path class="st4" d="M1916.07,1870.85c-11.87,1.75-23.51,4.97-34.61,9.52c-9.35,3.84-18.73,7.65-27.59,12.54
				c-5.12,2.82-10.08,5.94-14.84,9.33c-12.66,9.02-25.03,18.79-35.3,30.54c-3.17,3.63-6.08,7.46-9.03,11.28
				c-2.93,3.8-5.9,7.55-8.6,11.52c-3.08,4.53-5.88,9.26-8.33,14.16c-3.08,6.17-5.65,12.68-8.28,19.01
				c-1.03,2.48-1.98,4.99-2.83,7.54c-1.69,5.05-2.99,10.23-3.87,15.48c-1.59,9.51-3.09,19.3-3.12,29
				c-0.03,9.71,1.5,19.49,2.99,29.03c0.83,5.33,2.08,10.59,3.7,15.73c0.8,2.53,1.69,5.04,2.67,7.51c2.53,6.39,5.15,12.77,8.11,18.98
				c2.37,4.98,5.09,9.8,8.11,14.41c1.53,2.33,3.14,4.61,4.82,6.84c4.18,5.53,8.36,11.14,12.89,16.41c3.7,4.31,7.69,8.38,11.92,12.18
				c2.14,1.92,4.34,3.77,6.6,5.56c5.51,4.34,11.04,8.77,16.81,12.77c4.82,3.34,9.85,6.37,15.06,9.06c2.64,1.36,5.32,2.64,8.04,3.83
				c6.57,2.86,13.19,5.78,19.95,8.23c2.73,0.99,5.49,1.88,8.27,2.7c6.65,2.08,13.29,2.38,19.94,0.89c6.65-0.3,12.85-2.28,18.59-5.93
				c5.83-3.14,10.5-7.43,14.03-12.88c4.42-4.83,7.4-10.5,8.95-17c0.6-4.43,1.19-8.86,1.79-13.29c-0.03-9.03-2.3-17.44-6.83-25.24
				c-2.61-3.37-5.21-6.75-7.82-10.12c-6.24-6.2-13.59-10.48-22.06-12.86c-5.07-1.48-10.04-3.25-14.9-5.3
				c3.98,1.68,7.96,3.36,11.94,5.04c-10.71-4.55-20.81-10.44-30.03-17.54c3.37,2.61,6.75,5.21,10.12,7.82
				c-8.92-6.9-16.96-14.89-23.87-23.8c2.61,3.37,5.21,6.75,7.82,10.12c-6.4-8.31-11.78-17.37-15.88-27.03
				c1.68,3.98,3.36,7.96,5.04,11.94c-3.72-8.83-6.33-18.1-7.63-27.6c0.6,4.43,1.19,8.86,1.79,13.29
				c-1.16-8.68-1.21-17.48-0.07-26.17c-0.6,4.43-1.19,8.86-1.79,13.29c1.23-9.16,3.75-18.1,7.33-26.61
				c-1.68,3.98-3.36,7.96-5.04,11.94c4.15-9.8,9.64-18.96,16.14-27.38c-2.61,3.37-5.21,6.75-7.82,10.12
				c7.42-9.55,16.08-18.09,25.64-25.49c-3.37,2.61-6.75,5.21-10.12,7.82c10.36-7.98,21.73-14.61,33.77-19.71
				c-3.98,1.68-7.96,3.36-11.94,5.04c11.52-4.85,23.61-8.27,35.98-10.09c6.51-1.55,12.17-4.53,17-8.95
				c5.44-3.53,9.74-8.2,12.88-14.03c3.65-5.74,5.63-11.94,5.93-18.59c1.49-6.65,1.19-13.29-0.89-19.94
				c-1.68-3.98-3.36-7.96-5.04-11.94c-4.45-7.51-10.42-13.49-17.94-17.94c-3.98-1.68-7.96-3.36-11.94-5.04
				C1933.79,1868.47,1924.93,1868.47,1916.07,1870.85L1916.07,1870.85z"/>
		</g>
	</g>
	<g>
		<g>
			<path class="st4" d="M754.6,2122.84c4.71-6.27,9.02-12.83,12.92-19.64c4.95-8.65,8.98-17.66,12.85-26.83
				c3.82-9.04,7.43-18.08,10.19-27.51c2.13-7.3,3.84-14.72,5.12-22.21c1.36-7.99,2.41-16.05,3.32-24.11
				c0.42-3.71,0.73-7.44,0.93-11.17c0.4-7.43,0.36-14.89-0.13-22.32c-0.24-3.58-0.59-7.14-1.05-10.7
				c-1.02-7.94-1.95-15.94-3.48-23.81c-1.35-6.99-3.16-13.9-5.44-20.64c-1.13-3.33-2.37-6.62-3.73-9.86
				c-2.96-7.08-5.81-14.27-9.29-21.13c-3.13-6.18-6.73-12.12-10.79-17.73c-3.46-4.78-7.14-9.41-10.78-14.05
				c-1.05-1.34-2.13-2.66-3.24-3.96c-2.24-2.63-4.59-5.16-7.04-7.6c-2.48-2.47-5.06-4.83-7.74-7.09
				c-5.8-4.89-11.84-9.52-17.98-13.96c-5.6-4.04-11.5-7.66-17.64-10.82c-3.09-1.59-6.24-3.08-9.43-4.45
				c-7.06-3.03-14.13-6.17-21.4-8.72c-6.67-2.34-13.49-4.22-20.41-5.64c-3.5-0.72-7.02-1.33-10.56-1.82
				c-7.92-1.1-15.86-2.31-23.85-2.91c-7.26-0.54-14.55-0.62-21.82-0.23c-3.68,0.19-7.35,0.5-11,0.93
				c-7.99,0.93-16.01,1.94-23.94,3.36c-7.39,1.32-14.69,3.12-21.85,5.37c-3.63,1.14-7.21,2.4-10.76,3.77
				c-7.48,2.9-14.9,6.02-22.19,9.38c-3.46,1.6-6.86,3.31-10.22,5.13c-5.83,3.14-10.5,7.43-14.03,12.88c-4.42,4.83-7.4,10.5-8.95,17
				c-2.08,6.65-2.38,13.29-0.89,19.94c0.3,6.65,2.28,12.85,5.93,18.59c2.61,3.37,5.21,6.75,7.82,10.12
				c6.24,6.2,13.59,10.48,22.06,12.86c4.43,0.6,8.86,1.19,13.29,1.79c9.03-0.03,17.44-2.3,25.24-6.83
				c5.12-2.78,10.38-5.3,15.75-7.57c-3.98,1.68-7.96,3.36-11.94,5.04c14.36-6.02,29.47-10.14,44.9-12.23
				c-4.43,0.6-8.86,1.19-13.29,1.79c15.17-2.02,30.58-2.08,45.75-0.05c-4.43-0.6-8.86-1.19-13.29-1.79
				c13.91,1.88,27.56,5.51,40.5,10.97c-3.98-1.68-7.96-3.36-11.94-5.04c11.07,4.7,21.56,10.73,31.09,18.07
				c-3.37-2.61-6.75-5.21-10.12-7.82c8.6,6.65,16.35,14.34,23.02,22.93c-2.61-3.37-5.21-6.75-7.82-10.12
				c7.1,9.19,12.89,19.32,17.41,30.02c-1.68-3.98-3.36-7.96-5.04-11.94c5.38,12.82,8.91,26.35,10.79,40.12
				c-0.6-4.43-1.19-8.86-1.79-13.29c1.7,12.68,2.02,25.53,1.05,38.29c-0.28,3.68-0.67,7.34-1.16,11c0.6-4.43,1.19-8.86,1.79-13.29
				c-1.82,13.48-5.03,26.76-9.57,39.58c-1.31,3.69-2.73,7.34-4.25,10.95c1.68-3.98,3.36-7.96,5.04-11.94
				c-6.09,14.37-13.88,28-23.25,40.49c-3.65,5.74-5.63,11.94-5.93,18.59c-1.49,6.65-1.19,13.29,0.89,19.94
				c1.55,6.51,4.53,12.17,8.95,17c3.53,5.44,8.2,9.74,14.03,12.88c3.98,1.68,7.96,3.36,11.94,5.04c8.86,2.38,17.72,2.38,26.58,0
				c3.98-1.68,7.96-3.36,11.94-5.04C744.18,2136.33,750.16,2130.35,754.6,2122.84L754.6,2122.84z"/>
		</g>
	</g>
	<circle class="st6" cx="62.75" cy="271.56" r="26.44"/>
	<circle class="st6" cx="1608.65" cy="974.65" r="42.35"/>
	<circle class="st6" cx="1925.65" cy="95.65" r="42.35"/>
	<circle class="st6" cx="49.65" cy="1811.65" r="42.35"/>
	<circle class="st7" cx="1060.22" cy="1957.52" r="129.78"/>
	<circle class="st7" cx="326.22" cy="198.78" r="72.78"/>
</g>
<ellipse class="st8" cx="942.61" cy="1249.89" rx="10.88" ry="25.39"/>
<path d="M940.19,1243.92c0.53,7.09,5.83,12.55,12.25,13.14c1.04-3.48,1.49-7.68,1.15-12.18c-0.47-6.2-2.34-11.64-4.91-15.24
	C943.34,1231.8,939.71,1237.48,940.19,1243.92z"/>
<ellipse class="st8" cx="910.87" cy="1253.81" rx="10.88" ry="25.39"/>
<path d="M908.46,1247.85c0.53,7.09,5.83,12.55,12.25,13.14c1.04-3.48,1.49-7.68,1.15-12.18c-0.47-6.2-2.34-11.64-4.91-15.24
	C911.6,1235.73,907.97,1241.41,908.46,1247.85z"/>
<g>
	<defs>
		<rect id="SVGID_3_" x="608.5" y="339" width="215" height="130"/>
	</defs>
	<clipPath id="SVGID_9_">
		<use xlink:href="#SVGID_3_"  style="overflow:visible;"/>
	</clipPath>
	<g class="st9">
		<path class="st10" d="M673.67,467.52c35.54,0,64.35-28.59,64.35-63.85c0-35.26-28.81-63.85-64.35-63.85
			c-35.54,0-64.35,28.59-64.35,63.85C609.32,438.93,638.13,467.52,673.67,467.52z"/>
		<path class="st11" d="M758.33,339.82c-3.15,0-6.25,0.24-9.28,0.66v13.5c3-0.55,6.1-0.86,9.28-0.86
			c28.12,0,50.93,22.63,50.93,50.53c0,27.9-22.8,50.53-50.93,50.53c-3.16,0-6.26-0.31-9.28-0.86v13.5c3.03,0.44,6.12,0.66,9.28,0.66
			c35.54,0,64.35-28.58,64.35-63.85S793.88,339.82,758.33,339.82z"/>
		<path d="M720.08,404.35c-0.18-23.31,15.91-34.6,44.76-35.43l-8.03-12.67c-31.14,4.47-48.77,15.3-48.77,47.44
			s16.38,44.46,47.53,48.91l9.28-12.64c-28.07,1.08-44.58-11.22-44.76-35.61H720.08z"/>
		<path class="st12" d="M746.63,340.48c-35.54,0-64.35,28.58-64.35,63.85c0,35.27,28.81,63.85,64.35,63.85
			c35.55,0,64.35-28.58,64.35-63.85C810.99,369.06,782.18,340.48,746.63,340.48z M746.63,442.63c-21.32,0-38.6-17.14-38.6-38.29
			s17.28-38.29,38.6-38.29c21.32,0,38.6,17.14,38.6,38.29S767.96,442.63,746.63,442.63z"/>
	</g>
</g>
<g>
	<defs>
		<rect id="SVGID_1_" x="608.5" y="338" width="215" height="130"/>
	</defs>
	<clipPath id="SVGID_10_">
		<use xlink:href="#SVGID_1_"  style="overflow:visible;"/>
	</clipPath>
	<g class="st13">
		<path class="st10" d="M673.67,466.52c35.54,0,64.35-28.59,64.35-63.85c0-35.26-28.81-63.85-64.35-63.85
			c-35.54,0-64.35,28.59-64.35,63.85C609.32,437.93,638.13,466.52,673.67,466.52z"/>
		<path class="st11" d="M758.33,338.82c-3.15,0-6.25,0.24-9.28,0.66v13.5c3-0.55,6.1-0.86,9.28-0.86
			c28.12,0,50.93,22.63,50.93,50.53c0,27.9-22.8,50.53-50.93,50.53c-3.16,0-6.26-0.31-9.28-0.86v13.5c3.03,0.44,6.12,0.66,9.28,0.66
			c35.54,0,64.35-28.58,64.35-63.85S793.88,338.82,758.33,338.82z"/>
		<path d="M720.08,403.35c-0.18-23.31,15.91-34.6,44.76-35.43l-8.03-12.67c-31.14,4.47-48.77,15.3-48.77,47.44
			s16.38,44.46,47.53,48.91l9.28-12.64c-28.07,1.08-44.58-11.22-44.76-35.61H720.08z"/>
		<path class="st12" d="M746.63,339.48c-35.54,0-64.35,28.58-64.35,63.85c0,35.27,28.81,63.85,64.35,63.85
			c35.55,0,64.35-28.58,64.35-63.85C810.99,368.06,782.18,339.48,746.63,339.48z M746.63,441.63c-21.32,0-38.6-17.14-38.6-38.29
			s17.28-38.29,38.6-38.29c21.32,0,38.6,17.14,38.6,38.29S767.96,441.63,746.63,441.63z"/>
	</g>
</g>
<g>
	<defs>
		<rect id="SVGID_2_" x="609.5" y="338" width="215" height="130"/>
	</defs>
	<clipPath id="SVGID_11_">
		<use xlink:href="#SVGID_2_"  style="overflow:visible;"/>
	</clipPath>
	<g class="st14">
		<path class="st10" d="M674.67,466.52c35.54,0,64.35-28.59,64.35-63.85c0-35.26-28.81-63.85-64.35-63.85
			c-35.54,0-64.35,28.59-64.35,63.85C610.32,437.93,639.13,466.52,674.67,466.52z"/>
		<path class="st11" d="M759.33,338.82c-3.15,0-6.25,0.24-9.28,0.66v13.5c3-0.55,6.1-0.86,9.28-0.86
			c28.12,0,50.93,22.63,50.93,50.53c0,27.9-22.8,50.53-50.93,50.53c-3.16,0-6.26-0.31-9.28-0.86v13.5c3.03,0.44,6.12,0.66,9.28,0.66
			c35.54,0,64.35-28.58,64.35-63.85S794.88,338.82,759.33,338.82z"/>
		<path d="M721.08,403.35c-0.18-23.31,15.91-34.6,44.76-35.43l-8.03-12.67c-31.14,4.47-48.77,15.3-48.77,47.44
			s16.38,44.46,47.53,48.91l9.28-12.64c-28.07,1.08-44.58-11.22-44.76-35.61H721.08z"/>
		<path class="st12" d="M747.63,339.48c-35.54,0-64.35,28.58-64.35,63.85c0,35.27,28.81,63.85,64.35,63.85
			c35.55,0,64.35-28.58,64.35-63.85C811.99,368.06,783.18,339.48,747.63,339.48z M747.63,441.63c-21.32,0-38.6-17.14-38.6-38.29
			s17.28-38.29,38.6-38.29c21.32,0,38.6,17.14,38.6,38.29S768.96,441.63,747.63,441.63z"/>
	</g>
</g>
<g>
	<defs>
		<rect id="SVGID_4_" x="610.5" y="338" width="215" height="130"/>
	</defs>
	<clipPath id="SVGID_12_">
		<use xlink:href="#SVGID_4_"  style="overflow:visible;"/>
	</clipPath>
	<g class="st15">
		<path class="st10" d="M675.67,466.52c35.54,0,64.35-28.59,64.35-63.85c0-35.26-28.81-63.85-64.35-63.85
			c-35.54,0-64.35,28.59-64.35,63.85C611.32,437.93,640.13,466.52,675.67,466.52z"/>
		<path class="st11" d="M760.33,338.82c-3.15,0-6.25,0.24-9.28,0.66v13.5c3-0.55,6.1-0.86,9.28-0.86
			c28.12,0,50.93,22.63,50.93,50.53c0,27.9-22.8,50.53-50.93,50.53c-3.16,0-6.26-0.31-9.28-0.86v13.5c3.03,0.44,6.12,0.66,9.28,0.66
			c35.54,0,64.35-28.58,64.35-63.85S795.88,338.82,760.33,338.82z"/>
		<path d="M722.08,403.35c-0.18-23.31,15.91-34.6,44.76-35.43l-8.03-12.67c-31.14,4.47-48.77,15.3-48.77,47.44
			s16.38,44.46,47.53,48.91l9.28-12.64c-28.07,1.08-44.58-11.22-44.76-35.61H722.08z"/>
		<path class="st12" d="M748.63,339.48c-35.54,0-64.35,28.58-64.35,63.85c0,35.27,28.81,63.85,64.35,63.85
			c35.55,0,64.35-28.58,64.35-63.85C812.99,368.06,784.18,339.48,748.63,339.48z M748.63,441.63c-21.32,0-38.6-17.14-38.6-38.29
			s17.28-38.29,38.6-38.29c21.32,0,38.6,17.14,38.6,38.29S769.96,441.63,748.63,441.63z"/>
	</g>
</g>
<g>
	<defs>
		<rect id="SVGID_5_" x="611.5" y="338" width="215" height="130"/>
	</defs>
	<clipPath id="SVGID_13_">
		<use xlink:href="#SVGID_5_"  style="overflow:visible;"/>
	</clipPath>
	<g class="st16">
		<path class="st10" d="M676.67,466.52c35.54,0,64.35-28.59,64.35-63.85c0-35.26-28.81-63.85-64.35-63.85
			c-35.54,0-64.35,28.59-64.35,63.85C612.32,437.93,641.13,466.52,676.67,466.52z"/>
		<path class="st11" d="M761.33,338.82c-3.15,0-6.25,0.24-9.28,0.66v13.5c3-0.55,6.1-0.86,9.28-0.86
			c28.12,0,50.93,22.63,50.93,50.53c0,27.9-22.8,50.53-50.93,50.53c-3.16,0-6.26-0.31-9.28-0.86v13.5c3.03,0.44,6.12,0.66,9.28,0.66
			c35.54,0,64.35-28.58,64.35-63.85S796.88,338.82,761.33,338.82z"/>
		<path d="M723.08,403.35c-0.18-23.31,15.91-34.6,44.76-35.43l-8.03-12.67c-31.14,4.47-48.77,15.3-48.77,47.44
			s16.38,44.46,47.53,48.91l9.28-12.64c-28.07,1.08-44.58-11.22-44.76-35.61H723.08z"/>
		<path class="st12" d="M749.63,339.48c-35.54,0-64.35,28.58-64.35,63.85c0,35.27,28.81,63.85,64.35,63.85
			c35.55,0,64.35-28.58,64.35-63.85C813.99,368.06,785.18,339.48,749.63,339.48z M749.63,441.63c-21.32,0-38.6-17.14-38.6-38.29
			s17.28-38.29,38.6-38.29c21.32,0,38.6,17.14,38.6,38.29S770.96,441.63,749.63,441.63z"/>
	</g>
</g>
<g>
	<defs>
		<rect id="SVGID_6_" x="612.5" y="338" width="215" height="130"/>
	</defs>
	<clipPath id="SVGID_14_">
		<use xlink:href="#SVGID_6_"  style="overflow:visible;"/>
	</clipPath>
	<g class="st17">
		<path class="st10" d="M677.67,466.52c35.54,0,64.35-28.59,64.35-63.85c0-35.26-28.81-63.85-64.35-63.85
			c-35.54,0-64.35,28.59-64.35,63.85C613.32,437.93,642.13,466.52,677.67,466.52z"/>
		<path class="st11" d="M762.33,338.82c-3.15,0-6.25,0.24-9.28,0.66v13.5c3-0.55,6.1-0.86,9.28-0.86
			c28.12,0,50.93,22.63,50.93,50.53c0,27.9-22.8,50.53-50.93,50.53c-3.16,0-6.26-0.31-9.28-0.86v13.5c3.03,0.44,6.12,0.66,9.28,0.66
			c35.54,0,64.35-28.58,64.35-63.85S797.88,338.82,762.33,338.82z"/>
		<path d="M724.08,403.35c-0.18-23.31,15.91-34.6,44.76-35.43l-8.03-12.67c-31.14,4.47-48.77,15.3-48.77,47.44
			s16.38,44.46,47.53,48.91l9.28-12.64c-28.07,1.08-44.58-11.22-44.76-35.61H724.08z"/>
		<path class="st12" d="M750.63,339.48c-35.54,0-64.35,28.58-64.35,63.85c0,35.27,28.81,63.85,64.35,63.85
			c35.55,0,64.35-28.58,64.35-63.85C814.99,368.06,786.18,339.48,750.63,339.48z M750.63,441.63c-21.32,0-38.6-17.14-38.6-38.29
			s17.28-38.29,38.6-38.29c21.32,0,38.6,17.14,38.6,38.29S771.96,441.63,750.63,441.63z"/>
	</g>
</g>
<g>
	<defs>
		<rect id="SVGID_7_" x="612.5" y="337" width="215" height="130"/>
	</defs>
	<clipPath id="SVGID_15_">
		<use xlink:href="#SVGID_7_"  style="overflow:visible;"/>
	</clipPath>
	<g class="st18">
		<path class="st10" d="M677.67,465.52c35.54,0,64.35-28.59,64.35-63.85c0-35.26-28.81-63.85-64.35-63.85
			c-35.54,0-64.35,28.59-64.35,63.85C613.32,436.93,642.13,465.52,677.67,465.52z"/>
		<path class="st11" d="M762.33,337.82c-3.15,0-6.25,0.24-9.28,0.66v13.5c3-0.55,6.1-0.86,9.28-0.86
			c28.12,0,50.93,22.63,50.93,50.53c0,27.9-22.8,50.53-50.93,50.53c-3.16,0-6.26-0.31-9.28-0.86v13.5c3.03,0.44,6.12,0.66,9.28,0.66
			c35.54,0,64.35-28.58,64.35-63.85S797.88,337.82,762.33,337.82z"/>
		<path d="M724.08,402.35c-0.18-23.31,15.91-34.6,44.76-35.43l-8.03-12.67c-31.14,4.47-48.77,15.3-48.77,47.44
			s16.38,44.46,47.53,48.91l9.28-12.64c-28.07,1.08-44.58-11.22-44.76-35.61H724.08z"/>
		<path class="st12" d="M750.63,338.48c-35.54,0-64.35,28.58-64.35,63.85c0,35.27,28.81,63.85,64.35,63.85
			c35.55,0,64.35-28.58,64.35-63.85C814.99,367.06,786.18,338.48,750.63,338.48z M750.63,440.63c-21.32,0-38.6-17.14-38.6-38.29
			s17.28-38.29,38.6-38.29c21.32,0,38.6,17.14,38.6,38.29S771.96,440.63,750.63,440.63z"/>
	</g>
</g>
<g>
	<defs>
		<rect id="SVGID_8_" x="612.5" y="336" width="215" height="130"/>
	</defs>
	<clipPath id="SVGID_16_">
		<use xlink:href="#SVGID_8_"  style="overflow:visible;"/>
	</clipPath>
	<g class="st19">
		<path class="st10" d="M677.67,464.52c35.54,0,64.35-28.59,64.35-63.85c0-35.26-28.81-63.85-64.35-63.85
			c-35.54,0-64.35,28.59-64.35,63.85C613.32,435.93,642.13,464.52,677.67,464.52z"/>
		<path class="st11" d="M762.33,336.82c-3.15,0-6.25,0.24-9.28,0.66v13.5c3-0.55,6.1-0.86,9.28-0.86
			c28.12,0,50.93,22.63,50.93,50.53c0,27.9-22.8,50.53-50.93,50.53c-3.16,0-6.26-0.31-9.28-0.86v13.5c3.03,0.44,6.12,0.66,9.28,0.66
			c35.54,0,64.35-28.58,64.35-63.85S797.88,336.82,762.33,336.82z"/>
		<path d="M724.08,401.35c-0.18-23.31,15.91-34.6,44.76-35.43l-8.03-12.67c-31.14,4.47-48.77,15.3-48.77,47.44
			s16.38,44.46,47.53,48.91l9.28-12.64c-28.07,1.08-44.58-11.22-44.76-35.61H724.08z"/>
		<path class="st12" d="M750.63,337.48c-35.54,0-64.35,28.58-64.35,63.85c0,35.27,28.81,63.85,64.35,63.85
			c35.55,0,64.35-28.58,64.35-63.85C814.99,366.06,786.18,337.48,750.63,337.48z M750.63,439.63c-21.32,0-38.6-17.14-38.6-38.29
			s17.28-38.29,38.6-38.29c21.32,0,38.6,17.14,38.6,38.29S771.96,439.63,750.63,439.63z"/>
	</g>
</g>
<path d="M920.02,453.26c-6.91,0-13.4-1.32-19.46-3.97c-5.97-2.65-11.26-6.31-15.87-11.01c-4.52-4.78-8.06-10.24-10.62-16.38
	c-2.56-6.23-3.84-12.89-3.84-19.97c0-7,1.24-13.57,3.71-19.71c2.56-6.23,6.1-11.69,10.62-16.38c4.61-4.69,9.9-8.36,15.87-11.01
	c6.06-2.73,12.59-4.1,19.58-4.1c6.14,0,11.73,0.9,16.77,2.69c5.03,1.79,9.9,4.65,14.59,8.58c0.77,0.6,1.19,1.32,1.28,2.18
	c0.17,0.77,0.09,1.54-0.26,2.3c-0.34,0.68-0.85,1.19-1.54,1.54c-0.17,0.68-0.6,1.19-1.28,1.54c-0.68,0.34-1.49,0.47-2.43,0.38
	c-0.85-0.09-1.71-0.47-2.56-1.15c-3.33-2.9-6.95-5.03-10.88-6.4c-3.93-1.45-8.49-2.18-13.7-2.18c-5.55,0-10.75,1.11-15.62,3.33
	c-4.78,2.22-9,5.25-12.67,9.09c-3.67,3.84-6.57,8.28-8.7,13.31c-2.05,5.03-3.07,10.37-3.07,16c0,5.8,1.02,11.22,3.07,16.26
	c2.13,5.03,5.03,9.47,8.7,13.31c3.67,3.84,7.89,6.87,12.67,9.09c4.86,2.13,10.07,3.2,15.62,3.2c4.69,0,9.13-0.77,13.31-2.3
	c4.18-1.54,8.15-3.75,11.9-6.66c1.02-0.85,2.09-1.19,3.2-1.02c1.19,0.17,2.22,0.68,3.07,1.54c0.85,0.85,1.28,1.96,1.28,3.33
	c0,0.68-0.13,1.32-0.38,1.92c-0.17,0.51-0.51,1.07-1.02,1.66c-4.35,4.01-9.22,6.87-14.59,8.58
	C931.42,452.45,925.83,453.26,920.02,453.26z M995.87,452.62c-6.57,0-12.46-1.54-17.66-4.61c-5.21-3.16-9.34-7.42-12.42-12.8
	c-2.99-5.38-4.48-11.43-4.48-18.18c0-6.83,1.54-12.93,4.61-18.3c3.16-5.38,7.42-9.6,12.8-12.67c5.38-3.16,11.43-4.74,18.18-4.74
	c6.74,0,12.76,1.58,18.05,4.74c5.38,3.07,9.6,7.3,12.67,12.67c3.16,5.38,4.78,11.48,4.86,18.3l-3.97,3.07
	c0,6.14-1.45,11.69-4.35,16.64c-2.82,4.86-6.7,8.75-11.65,11.65C1007.64,451.22,1002.1,452.62,995.87,452.62z M996.89,443.66
	c4.95,0,9.34-1.15,13.18-3.46c3.92-2.3,7-5.46,9.22-9.47c2.3-4.1,3.46-8.66,3.46-13.7c0-5.12-1.15-9.69-3.46-13.7
	c-2.22-4.01-5.29-7.17-9.22-9.47c-3.84-2.39-8.23-3.58-13.18-3.58c-4.86,0-9.26,1.19-13.18,3.58c-3.93,2.3-7.04,5.46-9.34,9.47
	c-2.3,4.01-3.46,8.58-3.46,13.7c0,5.03,1.15,9.6,3.46,13.7c2.3,4.01,5.42,7.17,9.34,9.47C987.63,442.51,992.03,443.66,996.89,443.66
	z M1027.48,451.98c-1.45,0-2.65-0.43-3.58-1.28c-0.94-0.94-1.41-2.13-1.41-3.58v-21.89l2.43-10.11l7.55,1.92v30.08
	c0,1.45-0.47,2.65-1.41,3.58C1030.13,451.56,1028.93,451.98,1027.48,451.98z M1064.83,451.98c-3.41,0-6.49-0.94-9.22-2.82
	c-2.65-1.88-4.74-4.48-6.27-7.81c-1.45-3.33-2.18-7.17-2.18-11.52v-72.96c0-1.45,0.43-2.6,1.28-3.46c0.94-0.94,2.13-1.41,3.58-1.41
	c1.45,0,2.6,0.47,3.46,1.41c0.94,0.85,1.41,2.01,1.41,3.46v72.96c0,3.67,0.72,6.66,2.18,8.96c1.54,2.3,3.46,3.46,5.76,3.46h3.2
	c1.28,0,2.3,0.47,3.07,1.41c0.77,0.85,1.15,2.01,1.15,3.46c0,1.45-0.56,2.65-1.66,3.58c-1.02,0.85-2.39,1.28-4.1,1.28H1064.83z
	 M1111.93,452.62c-6.83,0-12.93-1.54-18.3-4.61s-9.6-7.3-12.67-12.67c-3.07-5.38-4.61-11.48-4.61-18.3c0-6.91,1.54-13.06,4.61-18.43
	c3.07-5.38,7.3-9.6,12.67-12.67s11.48-4.61,18.3-4.61c6.83,0,12.89,1.54,18.18,4.61c5.38,3.07,9.6,7.3,12.67,12.67
	s4.65,11.52,4.74,18.43c0,6.83-1.58,12.93-4.74,18.3c-3.07,5.38-7.3,9.6-12.67,12.67C1124.81,451.09,1118.75,452.62,1111.93,452.62z
	 M1111.93,443.66c4.95,0,9.39-1.15,13.31-3.46c3.93-2.3,7-5.46,9.22-9.47c2.22-4.01,3.33-8.58,3.33-13.7s-1.11-9.69-3.33-13.7
	c-2.22-4.1-5.29-7.3-9.22-9.6c-3.93-2.3-8.36-3.46-13.31-3.46c-4.95,0-9.39,1.15-13.31,3.46c-3.93,2.3-7.04,5.5-9.34,9.6
	c-2.22,4.01-3.33,8.58-3.33,13.7s1.11,9.69,3.33,13.7c2.3,4.01,5.42,7.17,9.34,9.47C1102.54,442.51,1106.98,443.66,1111.93,443.66z
	 M1168.86,408.85c0.26-5.29,1.62-10.03,4.1-14.21c2.56-4.18,5.85-7.47,9.86-9.86c4.1-2.39,8.62-3.58,13.57-3.58
	c3.93,0,6.95,0.55,9.09,1.66c2.13,1.11,2.94,2.73,2.43,4.86c-0.34,1.28-0.94,2.13-1.79,2.56c-0.77,0.43-1.75,0.6-2.94,0.51
	c-1.11-0.09-2.39-0.17-3.84-0.26c-4.78-0.43-9.05,0.09-12.8,1.54c-3.67,1.37-6.61,3.5-8.83,6.4c-2.13,2.9-3.2,6.36-3.2,10.37
	H1168.86z M1169.62,451.98c-1.54,0-2.73-0.43-3.58-1.28c-0.85-0.85-1.28-2.05-1.28-3.58v-60.29c0-1.54,0.43-2.73,1.28-3.58
	c0.85-0.85,2.05-1.28,3.58-1.28s2.73,0.43,3.58,1.28c0.85,0.85,1.28,2.05,1.28,3.58v60.29c0,1.54-0.43,2.73-1.28,3.58
	C1172.35,451.56,1171.16,451.98,1169.62,451.98z M1228.51,451.98c-1.54,0-2.77-0.43-3.71-1.28c-0.85-0.94-1.28-2.18-1.28-3.71
	v-60.03c0-1.54,0.43-2.73,1.28-3.58c0.94-0.94,2.18-1.41,3.71-1.41c1.45,0,2.6,0.47,3.46,1.41c0.94,0.85,1.41,2.05,1.41,3.58v60.03
	c0,1.54-0.47,2.77-1.41,3.71C1231.11,451.56,1229.96,451.98,1228.51,451.98z M1228.38,368.66c-1.88,0-3.5-0.68-4.86-2.05
	c-1.37-1.37-2.05-3.03-2.05-4.99c0-2.13,0.68-3.8,2.05-4.99c1.45-1.28,3.11-1.92,4.99-1.92c1.79,0,3.37,0.64,4.74,1.92
	c1.45,1.19,2.18,2.86,2.18,4.99c0,1.96-0.68,3.63-2.05,4.99C1232,367.97,1230.34,368.66,1228.38,368.66z M1288.29,452.62
	c-6.91,0-13.06-1.49-18.43-4.48c-5.29-3.07-9.47-7.3-12.54-12.67c-2.99-5.38-4.48-11.52-4.48-18.43c0-7,1.41-13.14,4.22-18.43
	c2.9-5.38,6.87-9.6,11.9-12.67c5.03-3.07,10.84-4.61,17.41-4.61c6.48,0,12.12,1.49,16.9,4.48c4.86,2.9,8.62,6.95,11.26,12.16
	c2.65,5.21,3.97,11.14,3.97,17.79c0,1.37-0.43,2.47-1.28,3.33c-0.85,0.77-1.96,1.15-3.33,1.15h-54.4v-8.19h55.42l-5.5,3.97
	c0.08-4.95-0.81-9.39-2.69-13.31c-1.88-3.93-4.57-7-8.06-9.22c-3.41-2.22-7.51-3.33-12.29-3.33c-4.86,0-9.13,1.15-12.8,3.46
	c-3.67,2.3-6.53,5.5-8.58,9.6c-1.96,4.01-2.94,8.62-2.94,13.82c0,5.21,1.11,9.81,3.33,13.82c2.3,4.01,5.42,7.17,9.34,9.47
	c3.93,2.3,8.45,3.46,13.57,3.46c3.07,0,6.14-0.51,9.22-1.54c3.16-1.11,5.67-2.47,7.55-4.1c0.94-0.77,2.01-1.15,3.2-1.15
	c1.19-0.09,2.22,0.21,3.07,0.9c1.11,1.02,1.66,2.13,1.66,3.33c0.08,1.19-0.38,2.22-1.41,3.07c-2.82,2.39-6.4,4.39-10.75,6.02
	C1296.48,451.86,1292.3,452.62,1288.29,452.62z M1360.64,451.98c-4.52,0-8.58-1.07-12.16-3.2c-3.5-2.13-6.27-5.03-8.32-8.7
	c-2.05-3.75-3.07-8.02-3.07-12.8v-62.59c0-1.45,0.43-2.65,1.28-3.58c0.94-0.94,2.13-1.41,3.58-1.41c1.45,0,2.65,0.47,3.58,1.41
	c0.94,0.94,1.41,2.13,1.41,3.58v62.59c0,4.35,1.28,7.94,3.84,10.75c2.56,2.73,5.85,4.1,9.86,4.1h3.46c1.36,0,2.47,0.47,3.33,1.41
	c0.85,0.94,1.28,2.13,1.28,3.58c0,1.45-0.51,2.65-1.54,3.58c-1.02,0.85-2.3,1.28-3.84,1.28H1360.64z M1328.77,393.1
	c-1.28,0-2.35-0.38-3.2-1.15c-0.85-0.85-1.28-1.88-1.28-3.07c0-1.28,0.43-2.3,1.28-3.07c0.85-0.85,1.92-1.28,3.2-1.28h32.64
	c1.28,0,2.35,0.43,3.2,1.28c0.85,0.77,1.28,1.79,1.28,3.07c0,1.19-0.43,2.22-1.28,3.07c-0.85,0.77-1.92,1.15-3.2,1.15H1328.77z
	 M1410.22,451.98c-4.52,0-8.58-1.07-12.16-3.2c-3.5-2.13-6.27-5.03-8.32-8.7c-2.05-3.75-3.07-8.02-3.07-12.8v-62.59
	c0-1.45,0.43-2.65,1.28-3.58c0.94-0.94,2.13-1.41,3.58-1.41c1.45,0,2.64,0.47,3.58,1.41c0.94,0.94,1.41,2.13,1.41,3.58v62.59
	c0,4.35,1.28,7.94,3.84,10.75c2.56,2.73,5.85,4.1,9.86,4.1h3.46c1.36,0,2.47,0.47,3.33,1.41c0.85,0.94,1.28,2.13,1.28,3.58
	c0,1.45-0.51,2.65-1.54,3.58c-1.02,0.85-2.3,1.28-3.84,1.28H1410.22z M1378.35,393.1c-1.28,0-2.35-0.38-3.2-1.15
	c-0.85-0.85-1.28-1.88-1.28-3.07c0-1.28,0.43-2.3,1.28-3.07c0.85-0.85,1.92-1.28,3.2-1.28h32.64c1.28,0,2.35,0.43,3.2,1.28
	c0.85,0.77,1.28,1.79,1.28,3.07c0,1.19-0.43,2.22-1.28,3.07c-0.85,0.77-1.92,1.15-3.2,1.15H1378.35z M1464.28,452.62
	c-6.83,0-12.93-1.54-18.3-4.61s-9.6-7.3-12.67-12.67s-4.61-11.48-4.61-18.3c0-6.91,1.54-13.06,4.61-18.43s7.3-9.6,12.67-12.67
	s11.48-4.61,18.3-4.61c6.83,0,12.89,1.54,18.18,4.61c5.38,3.07,9.6,7.3,12.67,12.67c3.07,5.38,4.65,11.52,4.74,18.43
	c0,6.83-1.58,12.93-4.74,18.3c-3.07,5.38-7.3,9.6-12.67,12.67C1477.17,451.09,1471.11,452.62,1464.28,452.62z M1464.28,443.66
	c4.95,0,9.39-1.15,13.31-3.46c3.93-2.3,7-5.46,9.22-9.47c2.22-4.01,3.33-8.58,3.33-13.7s-1.11-9.69-3.33-13.7
	c-2.22-4.1-5.29-7.3-9.22-9.6c-3.93-2.3-8.36-3.46-13.31-3.46c-4.95,0-9.39,1.15-13.31,3.46c-3.93,2.3-7.04,5.5-9.34,9.6
	c-2.22,4.01-3.33,8.58-3.33,13.7s1.11,9.69,3.33,13.7c2.3,4.01,5.42,7.17,9.34,9.47C1454.9,442.51,1459.33,443.66,1464.28,443.66z
	 M1577.15,451.98c-1.45,0-2.65-0.47-3.59-1.41c-0.93-0.94-1.4-2.09-1.4-3.46v-33.28c0-5.29-1.03-9.64-3.08-13.06
	c-1.96-3.41-4.69-5.97-8.19-7.68c-3.41-1.71-7.29-2.56-11.65-2.56c-4.18,0-7.97,0.81-11.39,2.43c-3.33,1.62-5.97,3.84-7.93,6.66
	c-1.97,2.82-2.95,6.02-2.95,9.6h-7.04c0.17-5.38,1.62-10.15,4.35-14.34c2.74-4.27,6.36-7.59,10.88-9.98
	c4.53-2.47,9.56-3.71,15.11-3.71c6.06,0,11.48,1.28,16.25,3.84c4.78,2.47,8.54,6.14,11.27,11.01c2.81,4.86,4.22,10.79,4.22,17.79
	v33.28c0,1.37-0.47,2.52-1.41,3.46C1579.67,451.51,1578.51,451.98,1577.15,451.98z M1522.11,451.98c-1.54,0-2.77-0.43-3.71-1.28
	c-0.86-0.94-1.28-2.13-1.28-3.58v-60.16c0-1.54,0.42-2.73,1.28-3.58c0.94-0.94,2.17-1.41,3.71-1.41c1.45,0,2.6,0.47,3.45,1.41
	c0.94,0.85,1.41,2.05,1.41,3.58v60.16c0,1.45-0.47,2.65-1.41,3.58C1524.71,451.56,1523.56,451.98,1522.11,451.98z M1608.86,451.98
	c-1.53,0-2.77-0.43-3.71-1.28c-0.85-0.94-1.28-2.18-1.28-3.71v-60.03c0-1.54,0.43-2.73,1.28-3.58c0.94-0.94,2.18-1.41,3.71-1.41
	c1.45,0,2.6,0.47,3.46,1.41c0.94,0.85,1.41,2.05,1.41,3.58v60.03c0,1.54-0.47,2.77-1.41,3.71
	C1611.46,451.56,1610.31,451.98,1608.86,451.98z M1608.73,368.66c-1.87,0-3.5-0.68-4.86-2.05c-1.37-1.37-2.05-3.03-2.05-4.99
	c0-2.13,0.68-3.8,2.05-4.99c1.45-1.28,3.11-1.92,4.99-1.92c1.79,0,3.37,0.64,4.74,1.92c1.45,1.19,2.17,2.86,2.17,4.99
	c0,1.96-0.68,3.63-2.04,4.99C1612.36,367.97,1610.7,368.66,1608.73,368.66z"/>
<path d="M1192.4,478.4h4.15v26.85h-4.15V478.4z M1195.35,490.15h7.85v3.45h-7.85V490.15z M1182.1,506.2c9.15,0,14.85,3.25,14.85,8.7
	c0,5.45-5.7,8.65-14.85,8.65c-9.15,0-14.85-3.2-14.85-8.65C1167.25,509.45,1172.95,506.2,1182.1,506.2z M1182.1,509.6
	c-6.7,0-10.8,1.9-10.8,5.3c0,3.3,4.1,5.25,10.8,5.25c6.7,0,10.8-1.95,10.8-5.25C1192.9,511.5,1188.8,509.6,1182.1,509.6z
	 M1163.45,498.3h3.5c9.35,0,14.6-0.3,20.65-1.55l0.5,3.4c-6.25,1.25-11.6,1.55-21.15,1.55h-3.5V498.3z M1163.45,481.85h19.95v3.4
	h-15.85v15.25h-4.1V481.85z M1239.54,478.45h4.2v33.1h-4.2V478.45z M1214.69,519.2h30.4v3.4h-30.4V519.2z M1214.69,508.5h4.1v12.3
	h-4.1V508.5z M1218.44,480.9h3.45v4.6c0,8.8-5,16.5-12.6,19.6l-2.15-3.35c6.8-2.65,11.3-9.25,11.3-16.25V480.9z M1219.19,480.9h3.4
	v4.6c0,6.8,4.55,12.95,11.3,15.4l-2.2,3.35c-7.5-2.9-12.5-10.15-12.5-18.75V480.9z M1266.59,481.65c7.05,0,12.1,4.35,12.1,10.65
	c0,6.35-5.05,10.7-12.1,10.7c-7.05,0-12.15-4.35-12.15-10.7C1254.44,486,1259.54,481.65,1266.59,481.65z M1266.59,485.25
	c-4.7,0-8.1,2.85-8.1,7.05c0,4.2,3.4,7.1,8.1,7.1c4.65,0,8.05-2.9,8.05-7.1C1274.64,488.1,1271.24,485.25,1266.59,485.25z
	 M1284.59,478.35h4.15v45.3h-4.15V478.35z M1252.74,513.75l-0.6-3.45c8.25,0,19.65-0.05,29.5-1.6l0.35,3.05
	C1271.84,513.7,1260.79,513.75,1252.74,513.75z M1323.73,480.05c6.75,0,11.7,4.1,11.7,10.05c0,5.9-4.95,10-11.7,10
	c-6.7,0-11.65-4.1-11.65-10C1312.08,484.15,1317.03,480.05,1323.73,480.05z M1323.73,483.45c-4.35,0-7.65,2.75-7.65,6.65
	s3.3,6.6,7.65,6.6c4.4,0,7.65-2.7,7.65-6.6S1328.13,483.45,1323.73,483.45z M1343.93,478.4h4.2v23.15h-4.2V478.4z M1318.88,503.75
	h29.25v11h-25.1v6.8h-4.05v-9.9h25.05v-4.55h-25.15V503.75z M1318.98,519.7h30.65v3.3h-30.65V519.7z M1367.28,480.75h3.45v4.6
	c0,8.7-4.9,15.9-12.45,18.85l-2.2-3.35c6.8-2.5,11.2-8.6,11.2-15.5V480.75z M1368.03,480.75h3.4v4.9c0,6.1,4.5,11.75,11,14
	l-2.2,3.25c-7.25-2.7-12.2-9.4-12.2-17.25V480.75z M1387.23,478.4h4.15v27.4h-4.15V478.4z M1390.23,490.05h7.85v3.5h-7.85V490.05z
	 M1376.98,507.05c9.25,0,14.85,3.05,14.85,8.25c0,5.2-5.6,8.2-14.85,8.2s-14.85-3-14.85-8.2
	C1362.13,510.1,1367.73,507.05,1376.98,507.05z M1376.98,510.35c-6.7,0-10.8,1.8-10.8,4.95c0,3.15,4.1,4.95,10.8,4.95
	c6.7,0,10.8-1.8,10.8-4.95C1387.78,512.15,1383.68,510.35,1376.98,510.35z M1419.88,495.95h8.55v3.45h-8.55V495.95z M1435.98,478.4
	h4v45.2h-4V478.4z M1427.03,479.35h3.95v42h-3.95V479.35z M1411.73,482.15c5.85,0,9.65,6.05,9.65,15.75c0,9.7-3.8,15.75-9.65,15.75
	s-9.6-6.05-9.6-15.75C1402.13,488.2,1405.88,482.15,1411.73,482.15z M1411.73,486c-3.55,0-5.8,4.6-5.8,11.9
	c0,7.3,2.25,11.9,5.8,11.9c3.6,0,5.85-4.6,5.85-11.9C1417.58,490.6,1415.33,486,1411.73,486z M1491.27,478.35h4.2v45.25h-4.2V478.35
	z M1494.32,496.7h8.35v3.45h-8.35V496.7z M1479.72,483.25h4.05c0,12.85-5.9,24.45-20.5,31.8l-2.3-3.2
	c12.5-6.35,18.75-16,18.75-27.95V483.25z M1463.07,483.25h18.8v3.4h-18.8V483.25z M1517.07,483.25h3.4v3.65c0,8.3-5,15.25-12.6,18
	l-2.1-3.3c6.8-2.4,11.3-8.25,11.3-14.7V483.25z M1517.82,483.25h3.4v3.6c0,5.9,4.3,11.2,10.95,13.4l-2,3.25
	c-7.55-2.5-12.35-8.95-12.35-16.65V483.25z M1507.02,481.75h24.15v3.4h-24.15V481.75z M1536.87,478.4h4.15v27.25h-4.15V478.4z
	 M1539.87,489.85h7.85v3.5h-7.85V489.85z M1526.62,506.85c9.2,0,14.85,3.05,14.85,8.3c0,5.3-5.65,8.35-14.85,8.35
	s-14.85-3.05-14.85-8.35C1511.77,509.9,1517.42,506.85,1526.62,506.85z M1526.62,510.2c-6.7,0-10.8,1.8-10.8,4.95
	c0,3.2,4.1,5.1,10.8,5.1s10.8-1.9,10.8-5.1C1537.42,512,1533.32,510.2,1526.62,510.2z M1595.66,478.35h4.2v45.25h-4.2V478.35z
	 M1598.71,496.7h8.35v3.45h-8.35V496.7z M1584.11,483.25h4.05c0,12.85-5.9,24.45-20.5,31.8l-2.3-3.2c12.5-6.35,18.75-16,18.75-27.95
	V483.25z M1567.46,483.25h18.8v3.4h-18.8V483.25z M1641.71,478.4h4.1v45.2h-4.1V478.4z M1644.51,497h8.05v3.5h-8.05V497z
	 M1620.06,483.25h3.8c0,10.9-2.3,21.45-10.4,30.2l-3.35-2.35c7.45-7.75,9.95-17.15,9.95-27.4V483.25z M1611.56,483.25h10.05v3.45
	h-10.05V483.25z M1632.36,483.25h3.85c0,10.95-1.55,23.35-9.85,33.2l-3.35-2.3c7.65-8.85,9.35-20.05,9.35-30.5V483.25z
	 M1625.31,483.25h8.75v3.45h-8.75V483.25z M1688.4,478.35h4.15v45.3h-4.15V478.35z M1668.7,481.85c6.7,0,11.5,6.15,11.5,15.75
	c0,9.65-4.8,15.8-11.5,15.8c-6.65,0-11.45-6.15-11.45-15.8C1657.25,488,1662.05,481.85,1668.7,481.85z M1668.7,485.6
	c-4.4,0-7.5,4.7-7.5,12c0,7.35,3.1,12.15,7.5,12.15c4.45,0,7.5-4.8,7.5-12.15C1676.2,490.3,1673.15,485.6,1668.7,485.6z"/>
<path class="st20" d="M1911.25,558.53c0,4.42,3.58,8,8,8s8-3.58,8-8c0-4.42-3.58-8-8-8S1911.25,554.11,1911.25,558.53z
	 M1995.25,560.03c0.83,0,1.5-0.67,1.5-1.5s-0.67-1.5-1.5-1.5V560.03z M1919.25,560.03h76v-3h-76V560.03z"/>
</svg>
